<svg
    width="110"
    height="32"
    viewBox="0 0 110 32"
    fill="none"
    xmlns="http://www.w3.org/2000/svg"
>
    <path
    fill-rule="evenodd"
    clip-rule="evenodd"
    d="M16.1499 0C7.2396 0 0 7.17241 0 16C0 24.8276 7.2396 32 16.1499 32C25.0602 32 32.2997 24.8276 32.2997 16C32.2997 7.17241 25.0602 0 16.1499 0ZM16.1499 30.2621C8.21416 30.2621 1.75421 23.8621 1.75421 16C1.75421 8.13793 8.21416 1.73793 16.1499 1.73793C24.0856 1.73793 30.5455 8.11034 30.5455 16C30.5455 23.8897 24.0856 30.2621 16.1499 30.2621Z"
    fill="#549470"
    ></path>
    <path
    fill-rule="evenodd"
    clip-rule="evenodd"
    d="M16.1498 4.93811C9.99616 4.93811 4.98413 9.87604 4.98413 16.0002C4.98413 22.0967 9.96831 27.0623 16.1498 27.0623C22.3035 27.0623 27.3155 22.1243 27.3155 16.0002C27.3155 9.90363 22.3035 4.93811 16.1498 4.93811ZM16.1498 25.2967C10.9707 25.2967 6.76619 21.1312 6.76619 16.0002C6.76619 10.8691 10.9707 6.70363 16.1498 6.70363C21.3289 6.70363 25.5335 10.8691 25.5335 16.0002C25.5335 21.1312 21.3289 25.2967 16.1498 25.2967Z"
    fill="#549470"
    ></path>
    <path
    d="M44.8848 7.83459L37.7844 24.6622H40.2626L42.0447 20.4415H49.6741L51.4004 24.5794L51.4283 24.6622H53.9343L46.8339 7.83459H44.8848ZM42.9078 18.4277L45.8594 11.3656L48.8109 18.4277H42.9078Z"
    fill="#292626"
    ></path>
    <path
    d="M57.4975 7.17249H55.7989H55.6875H55.5762V24.6621H57.7202V7.17249H57.6088H57.4975Z"
    fill="#292626"
    ></path>
    <path
    d="M65.5731 22.8412C64.3201 22.8412 63.6797 22.1516 63.6797 20.7722L63.7353 15.0067H66.7983V13.1033H63.7353L63.7632 9.18604H61.5356V13.1033H59.4194V15.0067H61.5356L61.5078 21.1584C61.5078 22.3447 61.8141 23.255 62.4267 23.8895C63.0671 24.524 63.9581 24.8274 65.1276 24.8274C65.8515 24.8274 66.3249 24.7722 66.6869 24.6895L66.7704 24.6619V22.7309L66.6033 22.7585C66.3527 22.786 65.9908 22.8412 65.5731 22.8412Z"
    fill="#292626"
    ></path>
    <path
    d="M74.0366 12.9655C72.1153 12.9655 71.1965 13.8758 70.7788 14.4827V13.1034H68.6626V24.662H70.8345V18.0413C70.8345 16.2758 72.1432 15.062 74.0366 15.062H74.148V12.9655H74.0366Z"
    fill="#292626"
    ></path>
    <path
    d="M83.3379 19.8345C83.3379 21.3242 82.3912 22.8414 80.5534 22.8414C78.9384 22.8414 77.9917 21.7656 77.9917 19.9449V13.1035H75.8198V20.2208C75.8198 23.007 77.5462 24.8828 80.1079 24.8828C81.7786 24.8828 82.8645 24.1104 83.4214 23.3104V24.6621H85.4819V13.1035H83.31V19.8345H83.3379Z"
    fill="#292626"
    ></path>
    <path
    d="M89.0468 7.75146C88.2671 7.75146 87.6545 8.35836 87.6545 9.13077C87.6545 9.90319 88.2671 10.4825 89.0468 10.4825C89.8264 10.4825 90.439 9.8756 90.439 9.13077C90.439 8.38595 89.7986 7.75146 89.0468 7.75146Z"
    fill="#292626"
    ></path>
    <path
    d="M90.1038 13.1035H87.9319V24.6621H90.1038V13.1035Z"
    fill="#292626"
    ></path>
    <path
    d="M97.1485 17.8757C96.9815 17.8481 96.7866 17.7929 96.6195 17.7653C95.3108 17.4895 94.5033 17.2964 94.5033 16.3308C94.5033 15.9171 94.6425 15.5584 94.8931 15.3102C95.2273 14.9791 95.7842 14.8136 96.4803 14.8136C96.536 14.8136 96.5638 14.8136 96.6195 14.8136C97.9003 14.8136 98.6243 15.4205 98.7635 16.5791L98.7914 16.6895L100.963 16.5515L100.935 16.4412C100.657 14.2343 99.0698 12.9377 96.703 12.9377C96.6473 12.9377 96.6195 12.9377 96.5638 12.9377C95.1437 12.9377 93.9743 13.324 93.2503 14.0688C92.6656 14.6481 92.3314 15.4481 92.3314 16.3584C92.3314 18.7033 94.1692 19.1171 96.2854 19.6136C98.3459 20.1102 99.0141 20.3584 99.0141 21.4067C99.0141 22.3998 98.1788 22.9791 96.7866 22.9791C95.3108 22.9791 94.4198 22.3446 94.2527 21.1584L94.2249 21.0481L92.053 21.186L92.0808 21.2964C92.3871 23.5584 94.0856 24.8274 96.7309 24.8274C99.5153 24.8274 101.158 23.4757 101.158 21.2136C101.186 19.0343 99.3483 18.3998 97.1485 17.8757Z"
    fill="#292626"
    ></path>
    <path
    d="M109.262 22.7585C109.012 22.8136 108.65 22.8688 108.204 22.8688C106.951 22.8688 106.311 22.1791 106.311 20.7998L106.366 15.0343H109.429V13.1309H106.366L106.394 9.21362H104.222L104.195 13.1309H102.078V15.0343H104.195L104.139 21.1585C104.139 22.3447 104.445 23.255 105.058 23.8895C105.698 24.524 106.589 24.8274 107.759 24.8274C108.483 24.8274 108.956 24.7722 109.318 24.6895L109.401 24.6619V22.7309L109.262 22.7585Z"
    fill="#292626"
    ></path>
</svg>