<?xml version="1.0" encoding="UTF-8" standalone="no"?>
<svg
   width="54.640999"
   height="54.641312"
   viewBox="0 0 54.640998 54.64131"
   fill="none"
   version="1.1"
   id="svg2"
   sodipodi:docname="favicon.svg"
   inkscape:version="1.3.2 (091e20e, 2023-11-25)"
   inkscape:export-filename="favicon.png"
   inkscape:export-xdpi="800"
   inkscape:export-ydpi="800"
   xmlns:inkscape="http://www.inkscape.org/namespaces/inkscape"
   xmlns:sodipodi="http://sodipodi.sourceforge.net/DTD/sodipodi-0.dtd"
   xmlns="http://www.w3.org/2000/svg"
   xmlns:svg="http://www.w3.org/2000/svg">
  <defs
     id="defs2" />
  <sodipodi:namedview
     id="namedview2"
     pagecolor="#ffffff"
     bordercolor="#000000"
     borderopacity="0.25"
     inkscape:showpageshadow="2"
     inkscape:pageopacity="0.0"
     inkscape:pagecheckerboard="0"
     inkscape:deskcolor="#d1d1d1"
     inkscape:zoom="7.3047895"
     inkscape:cx="13.963441"
     inkscape:cy="21.766541"
     inkscape:window-width="1512"
     inkscape:window-height="831"
     inkscape:window-x="185"
     inkscape:window-y="1118"
     inkscape:window-maximized="1"
     inkscape:current-layer="svg2" />
  <rect
     style="fill:#ffffff"
     id="rect3"
     width="46.544804"
     height="53.937214"
     x="4.0480976"
     y="0.35204887"
     ry="10.404133"
     rx="10.404133" />
  <g
     id="g2"
     transform="translate(3.5861119,3.1956558)">
    <path
       d="m 18.6719,18 c 0,-0.3854 -0.0573,-0.7292 -0.1719,-1.0312 -0.1146,-0.3126 -0.3229,-0.599 -0.625,-0.8594 C 17.5729,15.849 17.1458,15.5885 16.5938,15.3281 16.0417,15.0573 15.31771,14.7812 14.42188,14.5 13.40104,14.1667 12.42708,13.7917 11.5,13.375 10.58333,12.9479 9.76562,12.4531 9.04688,11.8906 8.32812,11.3281 7.76042,10.6719 7.34375,9.92188 c -0.40625,-0.75 -0.609375,-1.625 -0.609375,-2.625 0,-0.96876 0.213542,-1.84376 0.640625,-2.625 0.42708,-0.78126 1.02604,-1.44792 1.79688,-2 0.77083,-0.5625 1.67708,-0.98959 2.71874,-1.28126 1.04167,-0.30208 2.1875,-0.45312 3.4375,-0.45312 1.66668,0 3.13018,0.29688 4.39068,0.89062 1.2708,0.58334 2.2604,1.40626 2.9687,2.46876 0.7083,1.05208 1.0625,2.27604 1.0625,3.67187 h -5.0625 c 0,-0.61458 -0.1302,-1.15625 -0.3906,-1.625 -0.25,-0.47917 -0.6354,-0.85417 -1.1563,-1.125 C 16.6302,4.94792 15.98958,4.8125 15.21875,4.8125 c -0.75,0 -1.38021,0.11458 -1.89063,0.34375 -0.5,0.21875 -0.8802,0.52083 -1.14062,0.90625 -0.25,0.38542 -0.375,0.80729 -0.375,1.26562 0,0.36459 0.09375,0.69792 0.28125,1 0.19792,0.29167 0.47917,0.56771 0.84375,0.82813 0.375,0.25 0.83333,0.48958 1.375,0.71875 0.54167,0.2292 1.16146,0.4479 1.8594,0.6562 1.2187,0.3855 2.2969,0.8126 3.2343,1.2813 0.948,0.4687 1.7448,1 2.3907,1.5937 0.6458,0.5938 1.1302,1.2657 1.4531,2.0157 0.3333,0.75 0.5,1.5989 0.5,2.5469 0,1.0104 -0.1979,1.9062 -0.5938,2.6874 -0.3854,0.7813 -0.9479,1.448 -1.6874,2 -0.7292,0.5417 -1.6042,0.9532 -2.625,1.2344 -1.0209,0.2813 -2.1615,0.4219 -3.42192,0.4219 -1.14584,0 -2.27605,-0.1458 -3.39063,-0.4375 C 10.91667,23.5729 9.90625,23.1146 9,22.5 8.10417,21.8854 7.38542,21.1042 6.84375,20.1562 6.3125,19.1979 6.046875,18.0625 6.046875,16.75 h 5.093745 c 0,0.6875 0.09896,1.2708 0.29688,1.75 0.19792,0.4688 0.47917,0.849 0.84375,1.1406 0.375,0.2917 0.82813,0.5 1.35937,0.625 0.53126,0.125 1.125,0.1875 1.78126,0.1875 0.76042,0 1.37502,-0.1041 1.84372,-0.3125 0.4792,-0.2187 0.8334,-0.5156 1.0625,-0.8906 0.2292,-0.375 0.3438,-0.7917 0.3438,-1.25 z"
       fill="#000000"
       id="path1" />
    <path
       d="m 36.3281,24.25 h 5.0938 v 14.9375 c 0,1.7708 -0.375,3.2604 -1.125,4.4687 -0.7396,1.2084 -1.7709,2.1198 -3.0938,2.7344 -1.3229,0.6146 -2.8541,0.9219 -4.5937,0.9219 -1.75,0 -3.2917,-0.3073 -4.625,-0.9219 -1.3229,-0.6146 -2.3646,-1.526 -3.125,-2.7344 -0.75,-1.2083 -1.125,-2.6979 -1.125,-4.4687 V 24.25 h 5.1094 v 14.9375 c 0,0.9792 0.1458,1.7813 0.4374,2.4063 0.3021,0.6145 0.7344,1.0677 1.2969,1.3593 0.5625,0.2813 1.2396,0.4219 2.0313,0.4219 0.7916,0 1.4635,-0.1406 2.0156,-0.4219 0.5625,-0.2916 0.9844,-0.7448 1.2656,-1.3593 0.2917,-0.625 0.4375,-1.4271 0.4375,-2.4063 z"
       fill="#8d8d8d"
       id="path2" />
  </g>
</svg>
